<?xml version="1.0" encoding="UTF-8"?><svg id="Calque_1" xmlns="http://www.w3.org/2000/svg" viewBox="0 0 677.4 260.06"><defs><style>.cls-1{fill:#fff;stroke-width:0px;}</style></defs><rect class="cls-1" y="125.59" width="2" height="12.51"/><rect class="cls-1" x="6.13" y="125.59" width="2" height="15.06"/><rect class="cls-1" x="12.25" y="121.76" width="2" height="22.72"/><rect class="cls-1" x="18.38" y="117.03" width="2" height="30.77"/><rect class="cls-1" x="24.51" y="117.03" width="2" height="30.77"/><rect class="cls-1" x="80.17" y="113.95" width="2" height="36.4"/><rect class="cls-1" x="92.43" y="115.3" width="2" height="32.5"/><rect class="cls-1" x="86.55" y="125.07" width="2" height="22.83"/><rect class="cls-1" x="99.06" y="123.28" width="2" height="22.83"/><rect class="cls-1" x="105.19" y="123.28" width="2" height="18.9"/><rect class="cls-1" x="117.7" y="131.2" width="2" height="21.96"/><rect class="cls-1" x="123.57" y="126.03" width="2" height="20.08"/><rect class="cls-1" x="130.21" y="123.46" width="2" height="22.64"/><rect class="cls-1" x="142.21" y="118.01" width="2" height="29.89"/><rect class="cls-1" x="148.08" y="109.96" width="2" height="52.22"/><rect class="cls-1" x="136.21" y="114.54" width="2" height="52.22"/><rect class="cls-1" x="185.62" y="97.17" width="2" height="59.06"/><rect class="cls-1" x="191.74" y="113.35" width="2" height="48.82"/><rect class="cls-1" x="197.87" y="121.7" width="2" height="29.93"/><rect class="cls-1" x="210.38" y="125.68" width="2" height="23.9"/><rect class="cls-1" x="216.77" y="119.81" width="2" height="23.9"/><rect class="cls-1" x="222.89" y="126.15" width="2" height="23.9"/><rect class="cls-1" x="229.02" y="128.7" width="2" height="33.48"/><rect class="cls-1" x="235.15" y="105.02" width="2" height="48.14"/><rect class="cls-1" x="241.28" y="104.63" width="2" height="62.87"/><rect class="cls-1" x="254.3" y="116.36" width="2" height="71.78"/><rect class="cls-1" x="260.43" y="106.99" width="2" height="71.78"/><rect class="cls-1" x="266.55" y="63.54" width="2" height="116.05"/><rect class="cls-1" x="272.17" y="39.87" width="2" height="195.76"/><rect class="cls-1" x="284.43" y="40.22" width="2" height="164.77"/><rect class="cls-1" x="290.81" y="63.72" width="2" height="145.1"/><rect class="cls-1" x="296.94" y="93.08" width="2" height="97.61"/><rect class="cls-1" x="303.06" y="92.63" width="2" height="97.61"/><rect class="cls-1" x="309.96" y="97.3" width="2" height="59.94"/><rect class="cls-1" x="315.57" y="92.63" width="2" height="59.94"/><rect class="cls-1" x="321.96" y="95.09" width="2" height="52.71"/><rect class="cls-1" x="328.34" y="117.92" width="2" height="37.8"/><rect class="cls-1" x="334.3" y="114.05" width="2" height="37.8"/><rect class="cls-1" x="340.77" y="113.83" width="2" height="23.8"/><rect class="cls-1" x="278.81" y="24.23" width="2" height="235.83"/><rect class="cls-1" x="247.66" y="97.89" width="2" height="83.61"/><rect class="cls-1" x="204.51" y="106.36" width="2" height="49.68"/><rect class="cls-1" x="154.72" y="88.43" width="2" height="108.9"/><rect class="cls-1" x="160.85" y="68.83" width="2" height="123.65"/><rect class="cls-1" x="166.98" y="58.62" width="2" height="153.27"/><rect class="cls-1" x="173.62" y="72.74" width="2" height="137.4"/><rect class="cls-1" x="179.23" y="82.69" width="2" height="105.45"/><rect class="cls-1" x="111.32" y="117.92" width="2" height="29.98"/><rect class="cls-1" x="30.38" y="115.46" width="2" height="42.04"/><rect class="cls-1" x="73.79" y="108.31" width="2" height="46.89"/><rect class="cls-1" x="36.77" y="108.31" width="2" height="42.04"/><rect class="cls-1" x="43.66" y="94.44" width="2" height="76.34"/><rect class="cls-1" x="67.92" y="91.16" width="2" height="76.34"/><rect class="cls-1" x="49.79" y="89.59" width="2" height="85.79"/><rect class="cls-1" x="61.28" y="88.95" width="2" height="96.13"/><rect class="cls-1" x="55.66" y="78.86" width="2" height="109.28"/><rect class="cls-1" x="675.4" y="119.41" width="2" height="15.06"/><rect class="cls-1" x="669.28" y="115.58" width="2" height="22.72"/><rect class="cls-1" x="663.15" y="112.26" width="2" height="30.77"/><rect class="cls-1" x="657.02" y="112.26" width="2" height="30.77"/><rect class="cls-1" x="601.36" y="109.71" width="2" height="36.4"/><rect class="cls-1" x="589.11" y="112.26" width="2" height="32.5"/><rect class="cls-1" x="594.98" y="112.16" width="2" height="22.83"/><rect class="cls-1" x="582.47" y="113.95" width="2" height="22.83"/><rect class="cls-1" x="576.34" y="117.88" width="2" height="18.9"/><rect class="cls-1" x="563.83" y="106.9" width="2" height="21.96"/><rect class="cls-1" x="557.96" y="113.95" width="2" height="20.08"/><rect class="cls-1" x="551.32" y="113.95" width="2" height="22.65"/><rect class="cls-1" x="539.32" y="112.16" width="2" height="29.89"/><rect class="cls-1" x="533.45" y="97.88" width="2" height="52.22"/><rect class="cls-1" x="545.32" y="93.3" width="2" height="52.22"/><rect class="cls-1" x="495.92" y="103.83" width="2" height="59.06"/><rect class="cls-1" x="489.79" y="97.88" width="2" height="48.82"/><rect class="cls-1" x="483.66" y="108.43" width="2" height="29.93"/><rect class="cls-1" x="471.15" y="110.47" width="2" height="23.9"/><rect class="cls-1" x="464.77" y="116.35" width="2" height="23.9"/><rect class="cls-1" x="458.64" y="110.01" width="2" height="23.9"/><rect class="cls-1" x="452.51" y="97.88" width="2" height="33.48"/><rect class="cls-1" x="446.38" y="106.9" width="2" height="48.14"/><rect class="cls-1" x="440.25" y="92.56" width="2" height="62.88"/><rect class="cls-1" x="427.23" y="71.92" width="2" height="71.78"/><rect class="cls-1" x="421.11" y="81.29" width="2" height="71.78"/><rect class="cls-1" x="414.98" y="80.46" width="2" height="116.05"/><rect class="cls-1" x="409.36" y="24.43" width="2" height="195.76"/><rect class="cls-1" x="397.11" y="55.07" width="2" height="204.99"/><rect class="cls-1" x="390.72" y="51.24" width="2" height="145.1"/><rect class="cls-1" x="384.6" y="69.37" width="2" height="97.61"/><rect class="cls-1" x="378.47" y="69.82" width="2" height="97.61"/><rect class="cls-1" x="371.57" y="102.81" width="2" height="59.94"/><rect class="cls-1" x="365.96" y="107.48" width="2" height="59.94"/><rect class="cls-1" x="359.57" y="112.26" width="2" height="52.71"/><rect class="cls-1" x="353.19" y="104.34" width="2" height="37.8"/><rect class="cls-1" x="347.23" y="108.21" width="2" height="37.8"/><rect class="cls-1" x="402.72" width="2" height="235.83"/><rect class="cls-1" x="433.87" y="78.56" width="2" height="83.61"/><rect class="cls-1" x="477.02" y="104.02" width="2" height="49.68"/><rect class="cls-1" x="526.81" y="62.73" width="2" height="108.9"/><rect class="cls-1" x="520.68" y="67.58" width="2" height="123.65"/><rect class="cls-1" x="514.55" y="48.17" width="2" height="153.27"/><rect class="cls-1" x="507.92" y="49.92" width="2" height="137.4"/><rect class="cls-1" x="502.3" y="71.92" width="2" height="105.45"/><rect class="cls-1" x="570.21" y="112.16" width="2" height="29.98"/><rect class="cls-1" x="651.15" y="102.56" width="2" height="42.04"/><rect class="cls-1" x="607.74" y="104.86" width="2" height="46.89"/><rect class="cls-1" x="644.77" y="109.71" width="2" height="42.04"/><rect class="cls-1" x="637.87" y="89.28" width="2" height="76.34"/><rect class="cls-1" x="613.62" y="92.56" width="2" height="76.34"/><rect class="cls-1" x="631.74" y="84.69" width="2" height="85.79"/><rect class="cls-1" x="620.25" y="74.98" width="2" height="96.13"/><rect class="cls-1" x="625.87" y="71.92" width="2" height="109.28"/></svg>